<svg width="27" height="26" viewBox="0 0 27 26" fill="none" xmlns="http://www.w3.org/2000/svg">
<g clip-path="url(#clip0_5843_22173)">
<path d="M13.6276 25.7396C20.7354 25.7396 26.4975 19.9776 26.4975 12.8698C26.4975 5.76202 20.7354 0 13.6276 0C6.51983 0 0.757812 5.76202 0.757812 12.8698C0.757812 19.9776 6.51983 25.7396 13.6276 25.7396Z" fill="white"/>
<mask id="mask0_5843_22173" style="mask-type:alpha" maskUnits="userSpaceOnUse" x="0" y="0" width="27" height="26">
<path d="M13.6276 25.7406C20.7354 25.7406 26.4975 19.9786 26.4975 12.8708C26.4975 5.76299 20.7354 0.000976562 13.6276 0.000976562C6.51983 0.000976562 0.757812 5.76299 0.757812 12.8708C0.757812 19.9786 6.51983 25.7406 13.6276 25.7406Z" fill="white"/>
</mask>
<g mask="url(#mask0_5843_22173)">
<path d="M10.0557 10.1955C9.83155 10.2171 9.59233 10.284 9.39945 10.3776C8.71734 10.7107 8.23243 11.5221 8.0417 12.6471C7.9555 13.158 7.92317 13.797 7.96627 14.1375C8.05356 14.8347 8.37036 15.2528 8.91346 15.3854C9.14837 15.4426 9.49105 15.4447 9.74751 15.3897C10.6192 15.2055 11.2378 14.4058 11.4889 13.1375C11.5277 12.9392 11.5772 12.575 11.6041 12.2862C11.6311 11.9833 11.629 11.5749 11.5977 11.382C11.5427 11.035 11.4242 10.7635 11.2421 10.5652C11.0719 10.3788 10.8467 10.2603 10.5708 10.2117C10.4555 10.1912 10.1883 10.1827 10.0557 10.1955Z" fill="#FE0420"/>
<path d="M16.6042 11.2404C16.7085 10.6766 16.7901 10.2352 16.7931 10.2254C16.7985 10.2081 16.8459 10.207 17.598 10.207C18.1153 10.207 18.4321 10.2114 18.4946 10.2189C18.751 10.2501 18.9806 10.359 19.1249 10.5164C19.2327 10.6338 19.3028 10.7621 19.3469 10.9237C19.375 11.0239 19.3793 11.3052 19.3567 11.4528C19.2618 12.0596 18.8264 12.4873 18.1703 12.6198C17.9655 12.6608 17.8426 12.6652 17.0743 12.6576L16.3438 12.6501L16.3492 12.6221C16.3524 12.607 16.4526 12.0649 16.5711 11.4194L16.6042 11.2404Z" fill="#FE0420"/>
<path fill-rule="evenodd" clip-rule="evenodd" d="M13.1926 -3.67664C12.2787 -3.64539 11.5051 -3.56673 10.6818 -3.41909C7.81326 -2.90506 5.1107 -1.62268 2.8909 0.276093C2.5256 0.588605 2.3478 0.753481 1.93078 1.17052C1.42001 1.6824 1.11182 2.02292 0.715272 2.51863C-1.37954 5.13295 -2.62737 8.29471 -2.87305 11.6138C-2.91831 12.2248 -2.93124 13.1387 -2.90323 13.6667C-2.82025 15.1754 -2.58211 16.5051 -2.15108 17.8705C-1.55087 19.7736 -0.570276 21.6131 0.674324 23.1692C1.33703 23.9989 2.11073 24.7975 2.90706 25.4775C5.56544 27.7448 8.89515 29.1144 12.3736 29.372C12.838 29.4065 13.0826 29.4151 13.6235 29.4151C14.1677 29.4151 14.4361 29.4054 14.8843 29.372C18.2065 29.1231 21.3563 27.8827 23.9618 25.7986C24.4618 25.3988 24.811 25.0841 25.3272 24.568C25.8379 24.0561 26.146 23.7155 26.5426 23.2199C28.6375 20.6055 29.8853 17.4438 30.1309 14.1247C30.1762 13.5136 30.1891 12.5999 30.1611 12.0718C30.0781 10.5631 29.84 9.23331 29.409 7.86797C28.8087 5.96489 27.8281 4.12537 26.5835 2.56928C25.9208 1.73951 25.1472 0.940985 24.3508 0.261005C22.4521 -1.35867 20.1763 -2.53974 17.7614 -3.16046C16.6796 -3.43849 15.6408 -3.59582 14.4533 -3.66156C14.2453 -3.67341 13.3886 -3.68311 13.1926 -3.67664ZM10.7842 8.91973C11.3855 8.99086 11.8789 9.18807 12.2992 9.52646C12.7755 9.90897 13.1225 10.5264 13.2615 11.2345C13.4177 12.0319 13.3218 13.0438 13.0028 13.9469C12.5266 15.2928 11.5158 16.267 10.2616 16.587C9.90376 16.6787 9.65699 16.7088 9.25937 16.7088C8.94364 16.7099 8.77447 16.6948 8.51692 16.6452C7.34559 16.4168 6.55897 15.6086 6.3122 14.3779C6.25401 14.0891 6.24216 13.9458 6.24216 13.5481C6.24324 13.1558 6.25294 13.0319 6.3122 12.6775C6.42966 11.9813 6.65272 11.3552 6.96844 10.8347C7.67426 9.67088 8.74429 9.00056 10.0492 8.90357C10.2228 8.89064 10.6085 8.89926 10.7842 8.91973ZM18.6774 8.91973C19.4252 8.99086 20.0006 9.23983 20.4403 9.68164C20.7571 9.99952 20.9403 10.367 21.0179 10.8379C21.0437 10.9996 21.0437 11.3842 21.0179 11.5761C20.9339 12.1785 20.7 12.6494 20.284 13.0492C19.8271 13.4889 19.2237 13.7776 18.5104 13.8973C18.1343 13.9609 18.0848 13.9631 17.0535 13.9609C16.4899 13.9587 16.1074 13.962 16.1074 13.9684C16.1074 13.977 15.6332 16.5482 15.6106 16.6593L15.5999 16.7164H13.9393L13.9457 16.6808C13.9468 16.6747 13.9823 16.4811 14.0433 16.1485L14.045 16.1393C14.1697 15.4591 14.3989 14.2087 14.6581 12.7938C15.0459 10.6752 15.366 8.92943 15.3692 8.91542L15.3757 8.88956L16.9457 8.8971C18.1774 8.9025 18.5503 8.90788 18.6774 8.91973Z" fill="#FE0420"/>
</g>
</g>
<defs>
<clipPath id="clip0_5843_22173">
<rect width="25.7396" height="25.7396" fill="white" transform="translate(0.757812)"/>
</clipPath>
</defs>
</svg>
