<svg width="26" height="26" viewBox="0 0 26 26" fill="none" xmlns="http://www.w3.org/2000/svg">
<g clip-path="url(#clip0_5843_22157)">
<path d="M13.1296 25.7396C20.2374 25.7396 25.9994 19.9776 25.9994 12.8698C25.9994 5.76202 20.2374 0 13.1296 0C6.02178 0 0.259766 5.76202 0.259766 12.8698C0.259766 19.9776 6.02178 25.7396 13.1296 25.7396Z" fill="#8247E5"/>
<path d="M17.2669 10.369C16.9729 10.2163 16.5949 10.2163 16.2588 10.369L13.9066 11.6293L12.3105 12.4313L10.0004 13.6916C9.7063 13.8442 9.32827 13.8442 8.99225 13.6916L7.18611 12.6986C6.89208 12.5459 6.68206 12.2403 6.68206 11.8967V9.98716C6.68206 9.68168 6.85008 9.37612 7.18611 9.18518L8.99225 8.23044C9.28627 8.07769 9.66428 8.07769 10.0004 8.23044L11.8065 9.22333C12.1005 9.37612 12.3105 9.68168 12.3105 10.0253V11.2856L13.9066 10.4454V9.14699C13.9066 8.84148 13.7386 8.53596 13.4026 8.34501L10.0423 6.55011C9.74831 6.39736 9.37027 6.39736 9.03425 6.55011L5.58997 8.3832C5.25395 8.53596 5.08594 8.84148 5.08594 9.14699V12.7368C5.08594 13.0423 5.25395 13.3478 5.58997 13.5388L8.99225 15.3336C9.28627 15.4864 9.66428 15.4864 10.0004 15.3336L12.3105 14.1116L13.9066 13.2714L16.2169 12.0494C16.5108 11.8967 16.8889 11.8967 17.2249 12.0494L19.031 13.0041C19.3251 13.1569 19.5351 13.4624 19.5351 13.8061V15.7156C19.5351 16.0211 19.367 16.3266 19.031 16.5176L17.2669 17.4722C16.9729 17.625 16.5949 17.625 16.2588 17.4722L14.4527 16.5176C14.1587 16.3648 13.9486 16.0592 13.9486 15.7156V14.4935L12.3525 15.3336V16.5939C12.3525 16.8994 12.5206 17.2049 12.8566 17.3959L16.2588 19.1908C16.5529 19.3435 16.9309 19.3435 17.2669 19.1908L20.6692 17.3959C20.9632 17.2432 21.1732 16.9376 21.1732 16.5939V12.966C21.1732 12.6604 21.0052 12.3549 20.6692 12.164L17.2669 10.369Z" fill="white"/>
</g>
<defs>
<clipPath id="clip0_5843_22157">
<rect width="25.7396" height="25.7396" fill="white" transform="translate(0.259766)"/>
</clipPath>
</defs>
</svg>
